<svg width="61" height="61" xmlns="http://www.w3.org/2000/svg" xml:space="preserve" version="1.2" baseProfile="tiny">

 <g>
  <title>Layer 1</title>
  <path stroke="null" id="svg_1" d="m54.22222,10.79022l0,-0.62356c0,-5.61539 -4.55128,-10.16667 -10.16667,-10.16667s-10.16667,4.55128 -10.16667,10.16667l-6.77778,0c0,-5.61539 -4.55128,-10.16667 -10.16667,-10.16667s-10.16667,4.55128 -10.16667,10.16667l0,0.62356c-3.9345,1.40639 -6.77778,5.13078 -6.77778,9.54311l0,30.5c0,5.60522 4.56144,10.16667 10.16667,10.16667l40.66667,0c5.60522,0 10.16667,-4.56144 10.16667,-10.16667l0,-30.5c0,-4.41233 -2.84328,-8.13672 -6.77778,-9.54311zm-13.55556,-0.62356c0,-1.87067 1.51483,-3.38889 3.38889,-3.38889s3.38889,1.51822 3.38889,3.38889l0,6.77778c0,1.87067 -1.51483,3.38889 -3.38889,3.38889s-3.38889,-1.51822 -3.38889,-3.38889l0,-6.77778zm-27.11111,0c0,-1.87067 1.51483,-3.38889 3.38889,-3.38889s3.38889,1.51822 3.38889,3.38889l0,6.77778c0,1.87067 -1.51483,3.38889 -3.38889,3.38889s-3.38889,-1.51822 -3.38889,-3.38889l0,-6.77778zm40.66667,40.66667c0,1.86728 -1.51822,3.38889 -3.38889,3.38889l-40.66667,0c-1.87067,0 -3.38889,-1.52161 -3.38889,-3.38889l0,-20.33333l47.44444,0l0,20.33333z"/>
 </g>
</svg>